<?xml version="1.0" encoding="utf-8"?>
<!-- Generator: Adobe Illustrator 24.1.2, SVG Export Plug-In . SVG Version: 6.00 Build 0)  -->
<svg version="1.1" id="Layer_1" xmlns="http://www.w3.org/2000/svg" xmlns:xlink="http://www.w3.org/1999/xlink" x="0px" y="0px"
	 viewBox="0 0 412.4 700" style="enable-background:new 0 0 412.4 700;" xml:space="preserve">
<style type="text/css">
	.st0{fill:#343434;}
	.st1{fill:#F3C5AD;}
	.st2{fill:#00999B;}
	.st3{fill:#E7BBA4;stroke:#FCFCFC;stroke-width:5;stroke-miterlimit:10;}
	.st4{fill:#A48677;}
	.st5{fill:#FF9494;stroke:#A48677;stroke-width:3;stroke-miterlimit:10;}
	.st6{fill:#E7BBA4;}
	.st7{fill:#FFAE98;}
	.st8{fill:#292929;}
	.st9{fill:#2C2C2C;}
</style>
<g id="Layer_13">
	<path class="st0" d="M226.8,678.4l-14.4-47.6c-2.2-7.1-12.3-7.1-14.4,0l-14.7,48.7c-3.4,18-45.6,13.8-48.6-17.7
		c-2.1-22.5-3.1-59.2,0.7-86.8c0.5-3.7,3.7-6.5,7.5-6.5h122.9c3.7,0,6.9,2.7,7.4,6.3c5.2,32.4,4.1,63.4,1.5,93.5
		C270.9,694.3,232.9,696.9,226.8,678.4z"/>
	<path class="st1" d="M279.7,555.9c-1.5-2.8-122.3-1.4-145-1.1c-2.4,0-4.7-1.1-6.2-3.1c-15.1-20.4-15.8-54.1-6.9-100
		c0.7-3.5,3.8-6.1,7.4-6.1h149.5c3.2,0,6,2,7.1,5C303.6,500.3,283,561.9,279.7,555.9z"/>
	<path class="st2" d="M275.4,374.5l28.6,56.3c1.9,3.7,0.4,8.3-3.4,10.2l-26.8,13.1c-2.8,1.4-4.5,4.4-4.2,7.6l11,102.4
		c0.4,3.8-2,7.2-5.7,8.1c-40.1,9.9-96.5,11.3-140.7,1.2c-3.7-0.8-6.2-4.3-5.8-8.1l11.1-104.2c0.3-3.2-1.4-6.2-4.2-7.6l-23.4-11.2
		c-3.9-1.9-5.4-6.7-3.3-10.5l29.8-53.5c1.3-2.4,3.8-3.9,6.6-3.9L275.4,374.5L275.4,374.5z"/>
</g>
<g id="Layer_7">
	<ellipse class="st3" cx="206.2" cy="398.2" rx="30.6" ry="30.9"/>
</g>
<g id="Layer_6">
	<path class="st1" d="M207.2,129.2C88,56.5,43.5,279.8,59,312.2c18.6,62.3,45.6,77.9,122.8,83l63.5-0.2
		c75.5-3.1,91.1-27.7,107.4-82.7C374.2,192.8,232.8,112.8,207.2,129.2z"/>
</g>
<g id="Layer_4">
	<g>
		<path class="st4" d="M106.4,295.5c-1-3.1-1.1-6.5-0.5-9.8c0.6-3.4,2.1-6.6,4.1-9.4s4.7-5.3,7.7-7.2c3.1-1.9,6.5-3.2,10.4-3.6
			l1.4-0.1c0.5,0,1,0,1.5,0.1c1,0,2,0.2,3,0.4c1,0.2,1.9,0.5,2.8,0.9l1.3,0.6c0.4,0.2,0.9,0.4,1.3,0.7c3.3,1.9,5.9,4.5,7.9,7.4
			c3.9,5.9,4.8,13.5,2.4,19.4c-1.4-6.3-4.1-11.4-7.9-15c-1.9-1.8-4-3.3-6.2-4.3c-0.5-0.3-1.1-0.4-1.6-0.6c-0.6-0.1-1.1-0.3-1.6-0.4
			c-0.3,0-0.5-0.1-0.8-0.1c-0.3-0.1-0.5,0-0.8,0H130l-0.9,0.1c-0.6,0-1.1,0.1-1.7,0.2s-1.2,0.3-1.8,0.5c-0.6,0.1-1.2,0.4-1.8,0.6
			c-0.6,0.2-1.2,0.5-1.8,0.8c-2.3,1.1-4.5,2.6-6.5,4.4s-3.8,3.9-5.3,6.3C108.5,289.6,107.4,292.4,106.4,295.5z"/>
	</g>
	<g>
		<path class="st4" d="M262.4,292.7c-1-3.1-1.1-6.5-0.5-9.8c0.6-3.4,2.1-6.6,4.1-9.4s4.7-5.3,7.7-7.2c3-1.9,6.5-3.2,10.4-3.6
			l1.4-0.1c0.5,0,1,0,1.5,0.1c1,0,2,0.2,3,0.4c1,0.2,1.9,0.5,2.8,0.9l1.3,0.6c0.4,0.2,0.9,0.4,1.3,0.7c3.3,1.9,5.9,4.5,7.9,7.4
			c3.9,5.9,4.8,13.5,2.4,19.4c-1.4-6.3-4.1-11.4-7.9-15c-1.9-1.8-4-3.3-6.2-4.3c-0.5-0.3-1.1-0.4-1.6-0.6c-0.5-0.1-1.1-0.3-1.6-0.4
			c-0.3,0-0.5-0.1-0.8-0.1c-0.3-0.1-0.5,0-0.8,0H286l-0.9,0.1c-0.6,0-1.1,0.1-1.7,0.2s-1.2,0.3-1.8,0.5c-0.6,0.1-1.2,0.4-1.8,0.6
			c-0.6,0.2-1.2,0.5-1.8,0.8c-2.3,1.1-4.5,2.6-6.5,4.4s-3.8,3.9-5.3,6.3C264.5,286.9,263.3,289.6,262.4,292.7z"/>
	</g>
</g>
<g id="Layer_8">
	<path class="st0" d="M351.7,314.4c19.9-39.7,24.2-49,40-91c14.9-54.7,9.7-214.9-186-214.9c-33.7,0.1-50.9,5-81.2,17L72.9,14.4
		l5.8,40.8l-24.9-4.4l3.2,27c-37.2,37-47,108.6-38.7,142.5c9.1,32,17.2,54.9,41.2,94c1.1-0.2-1.1,0.2,0,0c-2.5-25.6-1-52.5,4.7-61.1
		c0,0,0,0.1,0,0c-0.5-0.7,4.1,9.1,9.8,10.7c-3.6-11.2-0.5-30.2,1.1-30.2c0-0.5-0.2,0.5,0,0s-0.4-0.4,0,0c0.1,0.5,0.3,1,0.3,1.4
		c2.7,16.5,16.6,17.3,27.4,15.2c-3.6-12-4.2-18.2-3.4-30.4c4.4,9.8,10,15.4,19,20.2c3.8,2,8.3,2.7,12.6,1.8
		c17.7-3.8,5.7-1.6,27.3-4.2c-12.7-26.1-12.6-37.9-4.8-71.2c4.3,28.5,12,43.9,32,62.3c5.2,4.7,12,7.3,19,7.1
		c7.3-0.2,10.1-0.3,10.1-0.3c-2.5-6.1-4.9-9.6-3.8-16.4c0.2,1.4,2.5,5.5,6.9,9.5c5.1,4.6,11.7,7,18.6,6.9c7.9-0.1,16.2,0.2,28.9,1.5
		c-7.5-12.6-9.7-20.2-6.3-34.2c0.2-0.1-0.2-0.2,0,0c1,4.4,12.1,33.6,37.1,40c-4.3-13.7-4.9-20.4-3-33.6c3.5,11.7,20.1,37.2,36,45.5
		C358.8,277.7,355.3,281.2,351.7,314.4"/>
	<path class="st5" d="M200.7,334.4c-7.2,0-14.4-0.2-21.5-0.6c4.4,15.8,14.6,26.9,26.6,26.9c11.9,0,22.1-11,26.5-26.6
		C221.9,334.8,211.4,334.9,200.7,334.4z"/>
	<ellipse class="st6" cx="206.4" cy="304.6" rx="74.3" ry="7.6"/>
	<ellipse class="st7" cx="286.8" cy="326.4" rx="32.8" ry="9.9"/>
	<g>
		<path class="st4" d="M197.4,304.6c-0.4-1-0.2-2.2,0.2-3.2s1.2-2,2.1-2.7c1.7-1.5,3.9-2.3,6.2-2.5c2.4-0.2,4.7,0.6,6.5,2.2
			c0.9,0.8,1.6,1.7,1.9,2.8s0.4,2.3-0.1,3.3c-0.4-2.1-1.7-3.4-3.2-4.2c-1.5-0.8-3.2-1.2-4.9-1.1s-3.5,0.6-5,1.4
			C199.4,301.4,198,302.6,197.4,304.6z"/>
	</g>
	<ellipse class="st7" cx="126.8" cy="326.4" rx="32.8" ry="9.9"/>
	<path class="st8" d="M328.9,53.2"/>
	<path class="st9" d="M291.1,86.8c48.6,29.4,75.2,70.3,79.8,122.7"/>
	<path class="st9" d="M267.2,196.8c-32.7-41.3-46.4-94-41.1-158.4"/>
	<path class="st9" d="M94.3,209.5c-13.5-29.6-13.5-54.5,0-74.8"/>
	<path class="st9" d="M64.5,243.1c-11.7-15.8-15.1-33.2-10.1-52.1"/>
</g>
</svg>
