<?xml version="1.0" encoding="utf-8"?>
<!-- Generator: Adobe Illustrator 24.1.2, SVG Export Plug-In . SVG Version: 6.00 Build 0)  -->
<svg version="1.1" id="Layer_1" xmlns="http://www.w3.org/2000/svg" xmlns:xlink="http://www.w3.org/1999/xlink" x="0px" y="0px"
	 viewBox="0 0 381.3 562.5" style="enable-background:new 0 0 381.3 562.5;" xml:space="preserve">
<style type="text/css">
	.st0{fill:#F3C5AD;}
	.st1{fill:#343434;}
	.st2{fill:#00999B;}
	.st3{fill:#E7BBA4;stroke:#FCFCFC;stroke-width:5;stroke-miterlimit:10;}
	.st4{fill:#A48677;}
	.st5{fill:#FF9494;stroke:#A48677;stroke-width:3;stroke-miterlimit:10;}
	.st6{fill:#E7BBA4;}
	.st7{fill:#FFAE98;}
	.st8{fill:#292929;}
	.st9{fill:#2C2C2C;}
</style>
<g id="Layer_13">
	<path class="st0" d="M126.5,426.7c0,0,127.2-2.3,128.1-0.8C274.4,515.8,109.4,519.7,126.5,426.7z"/>
	<path class="st1" d="M206.6,555.1l-11.2-29.4c-1.7-4.4-9.6-4.4-11.2,0l-11.4,30.1c-2.6,11.1-35.4,8.5-37.7-10.9
		c-1.6-13.9-2.4-36.6,0.5-53.7c0.4-2.3,2.9-4,5.8-4h95.5c2.9,0,5.4,1.7,5.7,3.9c4,20,3.2,39.2,1.2,57.8
		C240.8,564.9,211.3,566.5,206.6,555.1z"/>
	<path class="st2" d="M262.4,421.1c1.5,1.9-22.8,10.7-22.6,12.3c0,0,7,55.2,4.1,55.7c-31.1,5-75,5.7-109.3,0.6
		c-2.9-0.4,4.1-56.6,4.1-56.6c0.2-1.6-21.5-9.3-19.9-11.2C164.1,325.3,218.8,325.3,262.4,421.1z"/>
</g>
<g id="Layer_7">
	<ellipse class="st3" cx="190.9" cy="392" rx="21.9" ry="22.1"/>
</g>
<g id="Layer_6">
	<path class="st0" d="M43.7,303.7c24.9,122.1,267,122.2,293.7,0.1C381.7,78.3-2.2,78.8,43.7,303.7z"/>
</g>
<g id="Layer_4">
	<g>
		<path class="st4" d="M90.9,287c-1-3.1-1.1-6.5-0.5-9.8c0.6-3.4,2.1-6.6,4.1-9.4s4.7-5.3,7.7-7.2c3.1-1.9,6.5-3.2,10.4-3.6l1.4-0.1
			c0.5,0,1,0,1.5,0.1c1,0,2,0.2,3,0.4c1,0.2,1.9,0.5,2.8,0.9l1.3,0.6c0.4,0.2,0.9,0.4,1.3,0.7c3.3,1.9,5.9,4.5,7.9,7.4
			c3.9,5.9,4.8,13.5,2.4,19.4c-1.4-6.3-4.1-11.4-7.9-15c-1.9-1.8-4-3.3-6.2-4.3c-0.5-0.3-1.1-0.4-1.6-0.6c-0.6-0.1-1.1-0.3-1.6-0.4
			c-0.3,0-0.5-0.1-0.8-0.1c-0.3-0.1-0.5,0-0.8,0h-0.8l-0.9,0.1c-0.6,0-1.1,0.1-1.7,0.2s-1.2,0.3-1.8,0.5c-0.6,0.1-1.2,0.4-1.8,0.6
			c-0.6,0.2-1.2,0.5-1.8,0.8c-2.3,1.1-4.5,2.6-6.5,4.4s-3.8,3.9-5.3,6.3C93,281.1,91.9,283.9,90.9,287z"/>
	</g>
	<g>
		<path class="st4" d="M246.9,284.2c-1-3.1-1.1-6.5-0.5-9.8c0.6-3.4,2.1-6.6,4.1-9.4s4.7-5.3,7.7-7.2c3-1.9,6.5-3.2,10.4-3.6
			l1.4-0.1c0.5,0,1,0,1.5,0.1c1,0,2,0.2,3,0.4s1.9,0.5,2.8,0.9l1.3,0.6c0.4,0.2,0.9,0.4,1.3,0.7c3.3,1.9,5.9,4.5,7.9,7.4
			c3.9,5.9,4.8,13.5,2.4,19.4c-1.4-6.3-4.1-11.4-7.9-15c-1.9-1.8-4-3.3-6.2-4.3c-0.5-0.3-1.1-0.4-1.6-0.6c-0.5-0.1-1.1-0.3-1.6-0.4
			c-0.3,0-0.5-0.1-0.8-0.1c-0.3-0.1-0.5,0-0.8,0h-0.8l-0.9,0.1c-0.6,0-1.1,0.1-1.7,0.2s-1.2,0.3-1.8,0.5c-0.6,0.1-1.2,0.4-1.8,0.6
			c-0.6,0.2-1.2,0.5-1.8,0.8c-2.3,1.1-4.5,2.6-6.5,4.4c-2,1.8-3.8,3.9-5.3,6.3C249,278.4,247.8,281.1,246.9,284.2z"/>
	</g>
</g>
<g id="Layer_8">
	<path class="st1" d="M336.2,305.9c19.9-39.7,24.2-49,40-91C391.1,160.2,385.9,0,190.2,0c-33.7,0.1-50.9,5-81.2,17L57.4,5.9
		l5.8,40.8l-24.9-4.4l3.2,27c-37.2,37-47,108.6-38.7,142.5c9.1,32,17.2,54.9,41.2,94c1.1-0.2-1.1,0.2,0,0c-2.5-25.6-1-52.5,4.7-61.1
		c0,0,0,0.1,0,0c-0.5-0.7,4.1,9.1,9.8,10.7c-3.6-11.2-0.5-30.2,1.1-30.2c0-0.5-0.2,0.5,0,0s-0.4-0.4,0,0c0.1,0.5,0.3,1,0.3,1.4
		c2.7,16.5,16.6,17.3,27.4,15.2c-3.6-12-4.2-18.2-3.4-30.4c4.4,9.8,10,15.4,19,20.2c3.8,2,8.3,2.7,12.6,1.8
		c17.7-3.8,5.7-1.6,27.3-4.2c-12.7-26.1-12.6-37.9-4.8-71.2c4.3,28.5,12,43.9,32,62.3c5.2,4.7,12,7.3,19,7.1
		c7.3-0.2,10.1-0.3,10.1-0.3c-2.5-6.1-4.9-9.6-3.7-16.4c0.2,1.4,2.5,5.5,6.9,9.5c5.1,4.6,11.7,7,18.6,6.9c7.9-0.1,16.2,0.2,28.9,1.5
		c-7.5-12.6-9.7-20.2-6.3-34.2c0.2-0.1-0.2-0.2,0,0c1,4.4,12.1,33.6,37.1,40c-4.3-13.7-4.9-20.4-3-33.6c3.5,11.7,20.1,37.2,36,45.5
		C343.3,269.2,339.8,272.7,336.2,305.9"/>
	<path class="st5" d="M185.6,325.9c-7.2,0-14.4-0.2-21.5-0.6c4.4,15.8,14.6,26.9,26.6,26.9c11.9,0,22.1-11,26.5-26.6
		C206.8,326.3,196.3,326.4,185.6,325.9z"/>
	<ellipse class="st6" cx="190.9" cy="296.1" rx="74.3" ry="7.6"/>
	<ellipse class="st7" cx="271.3" cy="317.9" rx="32.8" ry="9.9"/>
	<g>
		<path class="st4" d="M181.9,296.1c-0.4-1-0.2-2.2,0.2-3.2s1.2-2,2.1-2.7c1.7-1.5,3.9-2.3,6.2-2.5c2.4-0.2,4.7,0.6,6.5,2.2
			c0.9,0.8,1.6,1.7,1.9,2.8s0.4,2.3-0.1,3.3c-0.4-2.1-1.7-3.4-3.2-4.2c-1.5-0.8-3.2-1.2-4.9-1.1s-3.5,0.6-5,1.4
			C183.9,292.9,182.5,294.1,181.9,296.1z"/>
	</g>
	<ellipse class="st7" cx="111.3" cy="317.9" rx="32.8" ry="9.9"/>
	<path class="st8" d="M313.4,44.7"/>
	<path class="st9" d="M275.5,78.3c48.6,29.4,75.2,70.3,79.8,122.7"/>
	<path class="st9" d="M251.6,188.3c-32.7-41.3-46.4-94-41.1-158.4"/>
	<path class="st9" d="M78.8,201c-13.5-29.6-13.5-54.5,0-74.8"/>
	<path class="st9" d="M49,234.6c-11.7-15.8-15.1-33.2-10.1-52.1"/>
</g>
</svg>
